<svg xmlns="http://www.w3.org/2000/svg" viewBox="0 0 80 50">
  <rect x="2" y="5" width="76" height="40" rx="3" fill="#1a237e" stroke="#3f51b5" stroke-width="1.5"/>
  <path d="M18 18 Q18 12 28 12 Q38 6 48 12 Q58 12 58 18 Q58 24 48 24 Q38 30 28 24 Q18 24 18 18Z" fill="#283593" stroke="#7986cb" stroke-width="1"/>
  <circle cx="28" cy="16" r="2" fill="#9fa8da"/>
  <circle cx="38" cy="13" r="2" fill="#9fa8da"/>
  <circle cx="48" cy="16" r="2" fill="#9fa8da"/>
  <circle cx="33" cy="20" r="2" fill="#7986cb"/>
  <circle cx="43" cy="20" r="2" fill="#7986cb"/>
  <path d="M22 28 L22 36 Q22 40 30 40 L46 40 Q54 40 54 36 L54 28" fill="none" stroke="#7986cb" stroke-width="1.2"/>
  <line x1="22" y1="34" x2="54" y2="34" stroke="#7986cb" stroke-width="0.8" stroke-dasharray="2,2"/>
  <text x="68" y="38" font-family="Arial,sans-serif" font-size="5" fill="#9fa8da" text-anchor="middle">OBJ</text>
</svg>