<svg xmlns="http://www.w3.org/2000/svg" viewBox="0 0 80 50">
  <!-- Standard switch chassis -->
  <rect x="4" y="10" width="72" height="30" rx="3" fill="#2d3436" stroke="#636e72" stroke-width="1.5"/>
  <!-- 8 port indicators -->
  <rect x="10" y="16" width="5" height="6" rx="0.5" fill="#f39c12" stroke="#e67e22" stroke-width="0.3"/>
  <rect x="17" y="16" width="5" height="6" rx="0.5" fill="#f39c12" stroke="#e67e22" stroke-width="0.3"/>
  <rect x="24" y="16" width="5" height="6" rx="0.5" fill="#f39c12" stroke="#e67e22" stroke-width="0.3"/>
  <rect x="31" y="16" width="5" height="6" rx="0.5" fill="#f39c12" stroke="#e67e22" stroke-width="0.3"/>
  <rect x="38" y="16" width="5" height="6" rx="0.5" fill="#f39c12" stroke="#e67e22" stroke-width="0.3"/>
  <rect x="45" y="16" width="5" height="6" rx="0.5" fill="#f39c12" stroke="#e67e22" stroke-width="0.3"/>
  <rect x="52" y="16" width="5" height="6" rx="0.5" fill="#f39c12" stroke="#e67e22" stroke-width="0.3"/>
  <rect x="59" y="16" width="5" height="6" rx="0.5" fill="#f39c12" stroke="#e67e22" stroke-width="0.3"/>
  <!-- SFP uplink -->
  <rect x="67" y="16" width="6" height="6" rx="1" fill="#2d3436" stroke="#636e72" stroke-width="0.5"/>
  <!-- Link activity LEDs -->
  <circle cx="12" cy="28" r="1" fill="#00b894"/>
  <circle cx="19" cy="28" r="1" fill="#00b894"/>
  <circle cx="26" cy="28" r="1" fill="#00b894"/>
  <circle cx="33" cy="28" r="1" fill="#00b894"/>
  <circle cx="40" cy="28" r="1" fill="#636e72"/>
  <circle cx="47" cy="28" r="1" fill="#636e72"/>
  <circle cx="54" cy="28" r="1" fill="#636e72"/>
  <circle cx="61" cy="28" r="1" fill="#636e72"/>
  <!-- Status LEDs -->
  <circle cx="12" cy="35" r="1.5" fill="#00b894"/>
  <circle cx="18" cy="35" r="1.5" fill="#0984e3"/>
</svg>