<svg xmlns="http://www.w3.org/2000/svg" viewBox="0 0 80 50">
  <rect x="2" y="8" width="76" height="34" rx="3" fill="#2d3436" stroke="#636e72" stroke-width="1.5"/>
  <ellipse cx="28" cy="18" rx="8" ry="4" fill="#636e72" stroke="#b2bec3" stroke-width="1"/>
  <ellipse cx="28" cy="16" rx="8" ry="4" fill="#b2bec3"/>
  <path d="M18 14 Q16 8 20 6" fill="none" stroke="#74b9ff" stroke-width="1.5" stroke-linecap="round"/>
  <path d="M15 16 Q12 8 17 4" fill="none" stroke="#74b9ff" stroke-width="1" stroke-linecap="round"/>
  <path d="M38 14 Q40 8 36 6" fill="none" stroke="#74b9ff" stroke-width="1.5" stroke-linecap="round"/>
  <path d="M41 16 Q44 8 39 4" fill="none" stroke="#74b9ff" stroke-width="1" stroke-linecap="round"/>
  <circle cx="58" cy="22" r="8" fill="none" stroke="#636e72" stroke-width="1"/>
  <path d="M54 22 L56 19 L58 24 L60 18 L62 22" fill="none" stroke="#74b9ff" stroke-width="1.5" stroke-linecap="round"/>
  <rect x="52" y="14" width="4" height="4" rx="1" fill="#636e72" stroke="#b2bec3" stroke-width="0.5"/>
  <circle cx="18" cy="36" r="2" fill="#00b894"/>
  <circle cx="24" cy="36" r="2" fill="#00b894"/>
  <text x="56" y="38" font-family="Arial,sans-serif" font-size="5" fill="#b2bec3" text-anchor="middle">WLC</text>
</svg>